<svg width="158" height="75" viewBox="0 0 158 75" fill="none" xmlns="http://www.w3.org/2000/svg">
<circle cx="78.5" cy="11" r="6.25" fill="white"/>
<path d="M105.949 29.3493C105.949 13.6924 93.2562 1 77.5993 1C61.9424 1 48.125 13.7181 48.125 29.375L49.1639 28.9285C58.1428 25.0698 68.326 25.1411 77.25 29.125V29.125" stroke="white"/>
<path d="M80.9707 22.976H79.4997" stroke="white" stroke-dasharray="10 10"/>
<path d="M80.9707 22.976H79.4997" stroke="white" stroke-dasharray="10 10"/>
<path d="M81.5712 22.9061L84.5712 22.1313C85.9039 21.7871 87.3125 21.888 88.5826 22.4185V22.4185C89.3533 22.7404 90.1802 22.9061 91.0154 22.9061L92.0001 22.9061" stroke="white"/>
<path d="M81.5712 22.9061L84.5712 22.1313C85.9039 21.7871 87.3125 21.888 88.5826 22.4185V22.4185C89.3533 22.7404 90.1802 22.9061 91.0154 22.9061L92.0001 22.9061" stroke="white"/>
<path d="M89.4556 19.297H90.2499" stroke="white" stroke-dasharray="10 10"/>
<path d="M89.4556 19.297H90.2499" stroke="white" stroke-dasharray="10 10"/>
<path d="M89.1317 19.2593L87.5117 18.8409C86.7921 18.6551 86.0314 18.7095 85.3456 18.996V18.996C84.9294 19.1698 84.4828 19.2593 84.0318 19.2593L83.5001 19.2593" stroke="white"/>
<path d="M89.1317 19.2593L87.5117 18.8409C86.7921 18.6551 86.0314 18.7095 85.3456 18.996V18.996C84.9294 19.1698 84.4828 19.2593 84.0318 19.2593L83.5001 19.2593" stroke="white"/>
<path d="M68.8828 21.3856H68.0002" stroke="white" stroke-dasharray="10 10"/>
<path d="M68.8828 21.3856H68.0002" stroke="white" stroke-dasharray="10 10"/>
<path d="M69.2422 21.3437L71.0422 20.8788C71.8418 20.6723 72.687 20.7328 73.449 21.0511V21.0511C73.9115 21.2443 74.4076 21.3437 74.9088 21.3437L75.4996 21.3437" stroke="white"/>
<path d="M69.2422 21.3437L71.0422 20.8788C71.8418 20.6723 72.687 20.7328 73.449 21.0511V21.0511C73.9115 21.2443 74.4076 21.3437 74.9088 21.3437L75.4996 21.3437" stroke="white"/>
<path d="M81.75 29.25H112" stroke="white"/>
<path d="M47.75 29.75H38" stroke="white"/>
<path d="M18.8936 51.14C18.2962 51.14 17.7362 51.0933 17.2136 51C16.7002 50.916 16.2569 50.79 15.8836 50.622V48.704C16.2942 48.8813 16.7469 49.026 17.2416 49.138C17.7456 49.25 18.2216 49.306 18.6696 49.306C19.2296 49.306 19.6449 49.2547 19.9156 49.152C20.1956 49.0493 20.3356 48.8253 20.3356 48.48C20.3356 48.2467 20.2656 48.06 20.1256 47.92C19.9949 47.78 19.7756 47.6587 19.4676 47.556C19.1689 47.444 18.7582 47.3133 18.2356 47.164C17.6196 46.9773 17.1296 46.772 16.7656 46.548C16.4016 46.3147 16.1402 46.0347 15.9816 45.708C15.8229 45.3813 15.7436 44.98 15.7436 44.504C15.7436 43.6453 16.0516 42.9873 16.6676 42.53C17.2836 42.0727 18.1936 41.844 19.3976 41.844C19.9202 41.844 20.4289 41.886 20.9236 41.97C21.4182 42.0447 21.8196 42.1333 22.1276 42.236V44.168C21.7262 44.0093 21.3202 43.8927 20.9096 43.818C20.5082 43.7433 20.1162 43.706 19.7336 43.706C19.2296 43.706 18.8189 43.7527 18.5016 43.846C18.1936 43.9393 18.0396 44.154 18.0396 44.49C18.0396 44.686 18.0956 44.8447 18.2076 44.966C18.3196 45.078 18.5109 45.1807 18.7816 45.274C19.0616 45.3673 19.4396 45.4793 19.9156 45.61C20.6529 45.806 21.2176 46.044 21.6096 46.324C22.0016 46.5947 22.2722 46.912 22.4216 47.276C22.5709 47.6307 22.6456 48.032 22.6456 48.48C22.6456 49.2733 22.3376 49.9173 21.7216 50.412C21.1056 50.8973 20.1629 51.14 18.8936 51.14ZM28.0032 51.14C26.5379 51.14 25.4225 50.7667 24.6572 50.02C23.8919 49.2733 23.5092 48.1113 23.5092 46.534C23.5092 44.8633 23.8919 43.664 24.6572 42.936C25.4225 42.208 26.5379 41.844 28.0032 41.844C29.4685 41.844 30.5839 42.208 31.3492 42.936C32.1145 43.664 32.4972 44.8633 32.4972 46.534C32.4972 48.1113 32.1145 49.2733 31.3492 50.02C30.5839 50.7667 29.4685 51.14 28.0032 51.14ZM28.0032 49.222C28.7592 49.222 29.3099 49.0073 29.6552 48.578C30.0099 48.1393 30.1872 47.458 30.1872 46.534C30.1872 45.526 30.0099 44.8167 29.6552 44.406C29.3099 43.986 28.7592 43.776 28.0032 43.776C27.2379 43.776 26.6779 43.986 26.3232 44.406C25.9779 44.8167 25.8052 45.526 25.8052 46.534C25.8052 47.458 25.9779 48.1393 26.3232 48.578C26.6779 49.0073 27.2379 49.222 28.0032 49.222ZM33.6466 51V41.984H35.9006V49.264H40.1566V51H33.6466ZM40.7494 51L44.1934 41.984H46.6294L50.0734 51H47.7214L46.9094 48.956H43.8994L43.1014 51H40.7494ZM44.2074 47.29H46.6014L45.3974 44.154L44.2074 47.29ZM51.215 51V41.984H55.723C56.787 41.984 57.571 42.264 58.075 42.824C58.579 43.384 58.831 44.1353 58.831 45.078C58.831 45.6847 58.677 46.2167 58.369 46.674C58.061 47.1313 57.641 47.472 57.109 47.696C57.2396 47.7987 57.3423 47.9153 57.417 48.046C57.501 48.1673 57.5896 48.34 57.683 48.564L58.747 51H56.395L55.387 48.704C55.303 48.508 55.1956 48.368 55.065 48.284C54.9343 48.1907 54.7476 48.144 54.505 48.144H53.469V51H51.215ZM53.469 46.408H55.135C55.5736 46.408 55.9143 46.3007 56.157 46.086C56.409 45.862 56.535 45.526 56.535 45.078C56.535 44.1727 56.101 43.72 55.233 43.72H53.469V46.408ZM59.9786 51V41.984H62.2326V51H59.9786ZM66.5264 51.14C65.929 51.14 65.369 51.0933 64.8464 51C64.333 50.916 63.8897 50.79 63.5164 50.622V48.704C63.927 48.8813 64.3797 49.026 64.8744 49.138C65.3784 49.25 65.8544 49.306 66.3024 49.306C66.8624 49.306 67.2777 49.2547 67.5484 49.152C67.8284 49.0493 67.9684 48.8253 67.9684 48.48C67.9684 48.2467 67.8984 48.06 67.7584 47.92C67.6277 47.78 67.4084 47.6587 67.1004 47.556C66.8017 47.444 66.391 47.3133 65.8684 47.164C65.2524 46.9773 64.7624 46.772 64.3984 46.548C64.0344 46.3147 63.773 46.0347 63.6144 45.708C63.4557 45.3813 63.3764 44.98 63.3764 44.504C63.3764 43.6453 63.6844 42.9873 64.3004 42.53C64.9164 42.0727 65.8264 41.844 67.0304 41.844C67.553 41.844 68.0617 41.886 68.5564 41.97C69.051 42.0447 69.4524 42.1333 69.7604 42.236V44.168C69.359 44.0093 68.953 43.8927 68.5424 43.818C68.141 43.7433 67.749 43.706 67.3664 43.706C66.8624 43.706 66.4517 43.7527 66.1344 43.846C65.8264 43.9393 65.6724 44.154 65.6724 44.49C65.6724 44.686 65.7284 44.8447 65.8404 44.966C65.9524 45.078 66.1437 45.1807 66.4144 45.274C66.6944 45.3673 67.0724 45.4793 67.5484 45.61C68.2857 45.806 68.8504 46.044 69.2424 46.324C69.6344 46.5947 69.905 46.912 70.0544 47.276C70.2037 47.6307 70.2784 48.032 70.2784 48.48C70.2784 49.2733 69.9704 49.9173 69.3544 50.412C68.7384 50.8973 67.7957 51.14 66.5264 51.14ZM77.2998 51.14C76.7025 51.14 76.1425 51.0933 75.6198 51C75.1065 50.916 74.6632 50.79 74.2898 50.622V48.704C74.7005 48.8813 75.1532 49.026 75.6478 49.138C76.1518 49.25 76.6278 49.306 77.0758 49.306C77.6358 49.306 78.0512 49.2547 78.3218 49.152C78.6018 49.0493 78.7418 48.8253 78.7418 48.48C78.7418 48.2467 78.6718 48.06 78.5318 47.92C78.4012 47.78 78.1818 47.6587 77.8738 47.556C77.5752 47.444 77.1645 47.3133 76.6418 47.164C76.0258 46.9773 75.5358 46.772 75.1718 46.548C74.8078 46.3147 74.5465 46.0347 74.3878 45.708C74.2292 45.3813 74.1498 44.98 74.1498 44.504C74.1498 43.6453 74.4578 42.9873 75.0738 42.53C75.6898 42.0727 76.5998 41.844 77.8038 41.844C78.3265 41.844 78.8352 41.886 79.3298 41.97C79.8245 42.0447 80.2258 42.1333 80.5338 42.236V44.168C80.1325 44.0093 79.7265 43.8927 79.3158 43.818C78.9145 43.7433 78.5225 43.706 78.1398 43.706C77.6358 43.706 77.2252 43.7527 76.9078 43.846C76.5998 43.9393 76.4458 44.154 76.4458 44.49C76.4458 44.686 76.5018 44.8447 76.6138 44.966C76.7258 45.078 76.9172 45.1807 77.1878 45.274C77.4678 45.3673 77.8458 45.4793 78.3218 45.61C79.0592 45.806 79.6238 46.044 80.0158 46.324C80.4078 46.5947 80.6785 46.912 80.8278 47.276C80.9772 47.6307 81.0518 48.032 81.0518 48.48C81.0518 49.2733 80.7438 49.9173 80.1278 50.412C79.5118 50.8973 78.5692 51.14 77.2998 51.14ZM82.1954 51V41.984H88.8454V43.72H84.4494V45.61H88.3274V47.374H84.4494V49.264H88.8454V51H82.1954ZM89.9201 51V41.984H94.4281C95.4921 41.984 96.2761 42.264 96.7801 42.824C97.2841 43.384 97.5361 44.1353 97.5361 45.078C97.5361 45.6847 97.3821 46.2167 97.0741 46.674C96.7661 47.1313 96.3461 47.472 95.8141 47.696C95.9447 47.7987 96.0474 47.9153 96.1221 48.046C96.2061 48.1673 96.2947 48.34 96.3881 48.564L97.4521 51H95.1001L94.0921 48.704C94.0081 48.508 93.9007 48.368 93.7701 48.284C93.6394 48.1907 93.4527 48.144 93.2101 48.144H92.1741V51H89.9201ZM92.1741 46.408H93.8401C94.2787 46.408 94.6194 46.3007 94.8621 46.086C95.1141 45.862 95.2401 45.526 95.2401 45.078C95.2401 44.1727 94.8061 43.72 93.9381 43.72H92.1741V46.408ZM98.6837 51V41.984H103.192C104.256 41.984 105.04 42.264 105.544 42.824C106.048 43.384 106.3 44.1353 106.3 45.078C106.3 45.6847 106.146 46.2167 105.838 46.674C105.53 47.1313 105.11 47.472 104.578 47.696C104.708 47.7987 104.811 47.9153 104.886 48.046C104.97 48.1673 105.058 48.34 105.152 48.564L106.216 51H103.864L102.856 48.704C102.772 48.508 102.664 48.368 102.534 48.284C102.403 48.1907 102.216 48.144 101.974 48.144H100.938V51H98.6837ZM100.938 46.408H102.604C103.042 46.408 103.383 46.3007 103.626 46.086C103.878 45.862 104.004 45.526 104.004 45.078C104.004 44.1727 103.57 43.72 102.702 43.72H100.938V46.408ZM106.538 51L109.982 41.984H112.418L115.862 51H113.51L112.698 48.956H109.688L108.89 51H106.538ZM109.996 47.29H112.39L111.186 44.154L109.996 47.29ZM117.004 51V41.984H119.23L121.68 46.982L124.116 41.984H126.328V51H124.074V45.82L122.296 49.46H121.05L119.258 45.82V51H117.004ZM127.75 51V41.984H132.51C133.415 41.984 134.097 42.1987 134.554 42.628C135.021 43.0573 135.254 43.664 135.254 44.448C135.254 44.924 135.161 45.3253 134.974 45.652C134.797 45.9693 134.559 46.2167 134.26 46.394C134.671 46.5433 134.993 46.7627 135.226 47.052C135.459 47.3413 135.576 47.7753 135.576 48.354C135.576 49.2127 135.324 49.8707 134.82 50.328C134.316 50.776 133.593 51 132.65 51H127.75ZM130.004 45.652H131.838C132.23 45.652 132.515 45.5633 132.692 45.386C132.869 45.2087 132.958 44.9613 132.958 44.644C132.958 44.2987 132.869 44.042 132.692 43.874C132.515 43.6967 132.193 43.608 131.726 43.608H130.004V45.652ZM130.004 49.39H132.062C132.473 49.39 132.776 49.306 132.972 49.138C133.177 48.97 133.28 48.6713 133.28 48.242C133.28 47.8967 133.182 47.64 132.986 47.472C132.79 47.2947 132.454 47.206 131.978 47.206H130.004V49.39ZM136.719 51V41.984H138.973V51H136.719ZM59.1609 68V57.8182H65.0522V58.6534H60.0906V62.4865H64.5898V63.3217H60.0906V68H59.1609ZM67.364 68V57.8182H68.2937V67.1648H73.146V68H67.364ZM75.8965 68H74.9221L78.6259 57.8182H79.6202L83.324 68H82.3496L79.1578 59.0263H79.0882L75.8965 68ZM76.5975 64.0973H81.6486V64.9325H76.5975V64.0973ZM83.2631 58.6534V57.8182H90.646V58.6534H87.4194V68H86.4897V58.6534H83.2631ZM98.2674 60.3636C98.2111 59.7969 97.9608 59.3461 97.5167 59.0114C97.0726 58.6766 96.5141 58.5092 95.8413 58.5092C95.3673 58.5092 94.9497 58.5904 94.5884 58.7528C94.2305 58.9152 93.9487 59.1406 93.7433 59.429C93.5411 59.714 93.44 60.0388 93.44 60.4034C93.44 60.6719 93.498 60.9072 93.614 61.1094C93.73 61.3116 93.8858 61.4856 94.0813 61.6314C94.2802 61.7739 94.4989 61.8965 94.7376 61.9993C94.9795 62.102 95.2231 62.1882 95.4684 62.2578L96.5423 62.5661C96.8671 62.6555 97.1919 62.7699 97.5167 62.9091C97.8415 63.0483 98.1381 63.224 98.4066 63.4361C98.6784 63.6449 98.8955 63.9018 99.0579 64.2067C99.2236 64.5083 99.3065 64.8712 99.3065 65.2955C99.3065 65.839 99.1656 66.3279 98.8839 66.7621C98.6022 67.1963 98.1978 67.541 97.6708 67.7962C97.1438 68.0481 96.5124 68.174 95.7766 68.174C95.0839 68.174 94.4824 68.0597 93.9719 67.831C93.4615 67.599 93.0605 67.2791 92.7688 66.8714C92.4772 66.4638 92.3131 65.9915 92.2766 65.4545H93.2312C93.2643 65.8556 93.3969 66.1953 93.6289 66.4737C93.8609 66.7521 94.1625 66.9643 94.5337 67.1101C94.9049 67.2526 95.3192 67.3239 95.7766 67.3239C96.2837 67.3239 96.7345 67.2393 97.1289 67.0703C97.5266 66.898 97.8382 66.6593 98.0636 66.3544C98.2923 66.0462 98.4066 65.6882 98.4066 65.2805C98.4066 64.9358 98.3171 64.6475 98.1381 64.4155C97.9592 64.1802 97.7089 63.983 97.3874 63.8239C97.0692 63.6648 96.6997 63.5239 96.2788 63.4013L95.0607 63.0433C94.262 62.8047 93.6422 62.4749 93.2013 62.054C92.7605 61.633 92.5401 61.0961 92.5401 60.4432C92.5401 59.8963 92.686 59.4157 92.9776 59.0014C93.2726 58.5838 93.6703 58.259 94.1708 58.027C94.6746 57.7917 95.2397 57.674 95.8661 57.674C96.4992 57.674 97.0593 57.79 97.5465 58.022C98.0337 58.254 98.4199 58.5739 98.7049 58.9815C98.9933 59.3859 99.1474 59.8466 99.1673 60.3636H98.2674Z" fill="white"/>
</svg>
